<svg width="32" height="32" viewBox="0 0 32 32" fill="none" xmlns="http://www.w3.org/2000/svg">
  <!-- Fond de l'icône -->
  <rect x="2" y="2" width="28" height="28" rx="6" fill="#3B82F6" stroke="#1E40AF" stroke-width="1"/>
  
  <!-- Tube à essai -->
  <path d="M8 12C8 10.8954 8.89543 10 10 10H22C23.1046 10 24 10.8954 24 12V24C24 25.1046 23.1046 26 22 26H10C8.89543 26 8 25.1046 8 24V12Z" fill="white"/>
  
  <!-- Liquide dans le tube -->
  <path d="M9 14C9 13.4477 9.44772 13 10 13H22C22.5523 13 23 13.4477 23 14V23C23 23.5523 22.5523 24 22 24H10C9.44772 24 9 23.5523 9 23V14Z" fill="#10B981"/>
  
  <!-- Bulles -->
  <circle cx="13" cy="16" r="1.2" fill="white" opacity="0.8"/>
  <circle cx="19" cy="18" r="1" fill="white" opacity="0.6"/>
  <circle cx="16" cy="20" r="0.8" fill="white" opacity="0.7"/>
  
  <!-- Microscope -->
  <circle cx="26" cy="12" r="2.5" fill="#F59E0B" stroke="#D97706" stroke-width="0.8"/>
  <path d="M24.5 12L27.5 12" stroke="white" stroke-width="1.2" stroke-linecap="round"/>
  <path d="M26 10.5L26 13.5" stroke="white" stroke-width="1.2" stroke-linecap="round"/>
</svg>
